<svg width="37" height="38" viewBox="0 0 37 38" fill="none" xmlns="http://www.w3.org/2000/svg">
<path d="M18.8811 16.2786H36.705C36.9017 17.3837 37 18.4392 37 19.4453C37 23.0243 36.2543 26.2198 34.7628 29.0319C33.2713 31.844 31.1447 34.0417 28.3831 35.625C25.6214 37.2083 22.454 38 18.8811 38C16.3079 38 13.8576 37.5011 11.5302 36.5033C9.20288 35.5054 7.19513 34.1571 5.50698 32.4583C3.81883 30.7595 2.47896 28.7391 1.48738 26.3971C0.495792 24.0551 0 21.5894 0 19C0 16.4106 0.495792 13.9449 1.48738 11.6029C2.47896 9.26085 3.81883 7.24045 5.50698 5.54167C7.19513 3.84288 9.20288 2.49457 11.5302 1.49674C13.8576 0.498915 16.3079 0 18.8811 0C23.798 0 28.0184 1.65755 31.5422 4.97266L26.404 9.94531C24.388 7.98264 21.8804 7.0013 18.8811 7.0013C16.7668 7.0013 14.8123 7.53733 13.0176 8.60938C11.2229 9.68142 9.80111 11.1369 8.75216 12.9759C7.70321 14.8149 7.17874 16.8229 7.17874 19C7.17874 21.1771 7.70321 23.1851 8.75216 25.0241C9.80111 26.8631 11.2229 28.3186 13.0176 29.3906C14.8123 30.4627 16.7668 30.9987 18.8811 30.9987C20.307 30.9987 21.6182 30.8008 22.8146 30.4049C24.0111 30.0091 24.9945 29.5143 25.7648 28.9206C26.5351 28.3268 27.2071 27.6506 27.7807 26.8919C28.3544 26.1332 28.7764 25.4158 29.0468 24.7396C29.3173 24.0634 29.5017 23.4201 29.6 22.8099H18.8811V16.2786Z" fill="white"/>
</svg>
