<svg width="39" height="39" viewBox="0 0 39 39" fill="none" xmlns="http://www.w3.org/2000/svg">
<path d="M22.3004 20.7C22.1004 20.3 22.2004 19.7 22.6004 19.3L37.9004 4.3C38.3004 3.9 38.3004 3.30001 37.9004 2.90001L36.8004 1.8C36.4004 1.4 35.8004 1.4 35.4004 1.8L33.7004 3.50001C33.3004 3.90001 32.7004 3.90001 32.3004 3.50001L29.6004 0.900006C29.2004 0.500006 28.6004 0.500006 28.2004 0.900006L27.1004 2.00001C26.7004 2.40001 26.7004 3.00001 27.1004 3.40001L29.8004 6.00001C30.2004 6.40001 30.2004 7.00001 29.8004 7.40001L20.1004 16.9C19.7004 17.3 19.1004 17.4 18.7004 17.3C18.3004 17.2 17.6004 16.8 17.1004 16.6C17.1004 16.6 14.4004 15.6 12.5004 15.6C10.9004 15.6 9.4004 15.9 8.0004 16.5C6.6004 17.1 5.40038 17.9 4.30038 18.9C3.20038 19.9 2.40038 21.1 1.80038 22.5C1.20038 23.9 0.900391 25.4 0.900391 26.9C0.900391 28.4 1.20038 29.9 1.80038 31.3C2.40038 32.6 3.20038 33.8 4.30038 34.9C5.40038 35.9 6.6004 36.7 8.0004 37.3C9.4004 37.9 10.9004 38.2 12.5004 38.2C14.1004 38.2 15.6004 37.9 17.0004 37.3C18.4004 36.7 19.6004 35.9 20.7004 34.9C21.8004 33.9 22.6004 32.7 23.2004 31.3C23.8004 29.9 24.1004 28.5 24.1004 26.9C24.1004 25 23.1004 22.4 23.1004 22.4C22.8004 21.8 22.5004 21.1 22.3004 20.7ZM18.7004 32.8C17.0004 34.4 14.9004 35.3 12.5004 35.3C10.1004 35.3 8.00039 34.4 6.40039 32.8C4.70039 31.2 3.80038 29 3.80038 26.7C3.80038 24.4 4.70039 22.2 6.40039 20.6C8.00039 19 10.2004 18.1 12.5004 18.1C14.8004 18.1 17.0004 19 18.7004 20.6C20.4004 22.2 21.3004 24.4 21.3004 26.7C21.3004 29.1 20.3004 31.2 18.7004 32.8Z" fill="white"/>
</svg>
