<svg width="64" height="65" viewBox="0 0 64 65" fill="none" xmlns="http://www.w3.org/2000/svg">
<path d="M59.4614 36.3077H36.4421V59.5C36.4421 62.0052 34.4089 64.0385 31.9037 64.0385C29.3984 64.0385 27.3652 62.0052 27.3652 59.5L27.3652 36.3077L4.53845 36.3077C2.0332 36.3077 0 34.2745 0 31.7692C0 29.264 2.0332 27.2308 4.53845 27.2308L27.3652 27.2308L27.3652 4.53845C27.3652 2.0332 29.3984 0 31.9037 0C34.4089 0 36.4421 2.0332 36.4421 4.53845L36.4421 27.2308L59.4614 27.2308C61.9667 27.2308 63.9999 29.264 63.9999 31.7692C63.9999 34.2745 61.9667 36.3077 59.4614 36.3077Z" fill="white"/>
</svg>
