<svg width="40" height="40" viewBox="0 0 40 40" fill="none" xmlns="http://www.w3.org/2000/svg">
<path fill-rule="evenodd" clip-rule="evenodd" d="M35.433 32.7219C38.2861 29.2647 40 24.8325 40 20C40 8.9543 31.0457 0 20 0C8.9543 0 0 8.9543 0 20C0 25.2926 2.05585 30.1051 5.41255 33.6824C6.16661 34.486 6.98631 35.2273 7.8631 35.8977C8.17427 36.1356 8.49264 36.3646 8.81781 36.5843C12.0098 38.7408 15.8579 40 20 40C24.5641 40 28.7711 38.4712 32.1369 35.8977C33.0137 35.2273 33.8334 34.486 34.5874 33.6824C34.8793 33.3714 35.1613 33.0511 35.433 32.7219ZM31.032 32.9347C28.0628 35.4696 24.2101 37 20 37C15.7899 37 11.9372 35.4696 8.96799 32.9347C11.1863 28.4796 15.4191 25.6087 20 25.6087C24.5809 25.6087 28.8137 28.4796 31.032 32.9347ZM33.2213 30.6872C30.4449 25.8312 25.5611 22.6087 20 22.6087C14.4389 22.6087 9.55508 25.8312 6.77869 30.6872C4.41552 27.7673 3 24.049 3 20C3 10.6112 10.6112 3 20 3C29.3888 3 37 10.6112 37 20C37 24.049 35.5845 27.7673 33.2213 30.6872ZM20 17C22.1851 17 23.9565 15.2286 23.9565 13.0435C23.9565 10.8584 22.1851 9.08696 20 9.08696C17.8149 9.08696 16.0435 10.8584 16.0435 13.0435C16.0435 15.2286 17.8149 17 20 17ZM20 20C23.842 20 26.9565 16.8855 26.9565 13.0435C26.9565 9.2015 23.842 6.08696 20 6.08696C16.158 6.08696 13.0435 9.2015 13.0435 13.0435C13.0435 16.8855 16.158 20 20 20Z" fill="#E5E5E5"/>
</svg>
